<svg width="31" height="23" viewBox="0 0 31 23" fill="none" xmlns="http://www.w3.org/2000/svg">
<path d="M29.6235 20.7836C28.7843 22.3978 27.8736 22.6947 26.0192 22.8076C24.1668 22.9435 19.5086 23 15.4731 23C11.4298 23 6.76971 22.9435 4.91921 22.8097C3.0687 22.6947 2.15602 22.3999 1.30908 20.7836C0.44474 19.1715 0 16.3948 0 11.5063C0 11.5021 0 11.5 0 11.5C0 11.4958 0 11.4937 0 11.4937V11.4895C0 6.62191 0.44474 3.82427 1.30908 2.22891C2.15602 0.614727 3.06677 0.321999 4.91727 0.18609C6.76971 0.0690002 11.4298 0 15.4731 0C19.5086 0 24.1668 0.0690022 26.0211 0.184002C27.8755 0.31991 28.7862 0.612637 29.6255 2.22682C30.4975 3.82218 30.9384 6.61982 30.9384 11.4875C30.9384 11.4875 30.9384 11.4937 30.9384 11.4979C30.9384 11.4979 30.9384 11.5021 30.9384 11.5042C30.9384 16.3948 30.4975 19.1715 29.6235 20.7836ZM11.6019 5.22727V17.7727L21.2701 11.5L11.6019 5.22727Z" fill="#FF0000"/>
</svg>
