<svg width="1250" height="189" viewBox="0 0 1250 189" fill="none" xmlns="http://www.w3.org/2000/svg">
<path d="M181.565 184V185H183.043L182.494 183.628L181.565 184ZM142.259 184L141.325 184.359L141.572 185H142.259V184ZM126.634 143.351L127.567 142.992L127.321 142.351H126.634V143.351ZM55.1006 143.351V142.351H54.4L54.1607 143.009L55.1006 143.351ZM40.3301 184V185H41.0307L41.27 184.342L40.3301 184ZM2 184L1.06819 183.637L0.537329 185H2V184ZM71.7021 5.04492V4.04492H71.0185L70.7703 4.68198L71.7021 5.04492ZM109.91 5.04492L110.839 4.6732L110.587 4.04492H109.91V5.04492ZM115.037 113.199V114.199H116.475L115.975 112.851L115.037 113.199ZM90.3789 46.793L91.3164 46.4449L90.3695 43.895L89.4392 46.451L90.3789 46.793ZM66.209 113.199L65.2693 112.857L64.7808 114.199H66.209V113.199ZM181.565 183H142.259V185H181.565V183ZM143.192 183.641L127.567 142.992L125.7 143.709L141.325 184.359L143.192 183.641ZM126.634 142.351H55.1006V144.351H126.634V142.351ZM54.1607 143.009L39.3902 183.658L41.27 184.342L56.0405 143.692L54.1607 143.009ZM40.3301 183H2V185H40.3301V183ZM2.93181 184.363L72.634 5.40786L70.7703 4.68198L1.06819 183.637L2.93181 184.363ZM71.7021 6.04492H109.91V4.04492H71.7021V6.04492ZM108.982 5.41664L180.637 184.372L182.494 183.628L110.839 4.6732L108.982 5.41664ZM115.975 112.851L91.3164 46.4449L89.4415 47.1411L114.1 113.547L115.975 112.851ZM89.4392 46.451L65.2693 112.857L67.1487 113.541L91.3186 47.135L89.4392 46.451ZM66.209 114.199H115.037V112.199H66.209V114.199ZM201.219 184H200.219V185H201.219V184ZM201.219 5.04492V4.04492H200.219V5.04492H201.219ZM236.375 5.04492L237.228 4.52238L236.935 4.04492H236.375V5.04492ZM309.617 124.552L308.765 125.074L310.617 128.097V124.552H309.617ZM309.617 5.04492V4.04492H308.617V5.04492H309.617ZM343.187 5.04492H344.187V4.04492H343.187V5.04492ZM343.187 184V185H344.187V184H343.187ZM306.932 184L306.081 184.526L306.374 185H306.932V184ZM234.788 67.3008L235.639 66.7749L233.788 63.7814V67.3008H234.788ZM234.788 184V185H235.788V184H234.788ZM202.219 184V5.04492H200.219V184H202.219ZM201.219 6.04492H236.375V4.04492H201.219V6.04492ZM235.522 5.56746L308.765 125.074L310.47 124.029L237.228 4.52238L235.522 5.56746ZM310.617 124.552V5.04492H308.617V124.552H310.617ZM309.617 6.04492H343.187V4.04492H309.617V6.04492ZM342.187 5.04492V184H344.187V5.04492H342.187ZM343.187 183H306.932V185H343.187V183ZM307.782 183.474L235.639 66.7749L233.938 67.8266L306.081 184.526L307.782 183.474ZM233.788 67.3008V184H235.788V67.3008H233.788ZM234.788 183H201.219V185H234.788V183ZM421.8 184H420.8V185H421.8V184ZM421.8 35.3184H422.8V34.3184H421.8V35.3184ZM368.699 35.3184H367.699V36.3184H368.699V35.3184ZM368.699 5.04492V4.04492H367.699V5.04492H368.699ZM510.911 5.04492H511.911V4.04492H510.911V5.04492ZM510.911 35.3184V36.3184H511.911V35.3184H510.911ZM457.933 35.3184V34.3184H456.933V35.3184H457.933ZM457.933 184V185H458.933V184H457.933ZM422.8 184V35.3184H420.8V184H422.8ZM421.8 34.3184H368.699V36.3184H421.8V34.3184ZM369.699 35.3184V5.04492H367.699V35.3184H369.699ZM368.699 6.04492H510.911V4.04492H368.699V6.04492ZM509.911 5.04492V35.3184H511.911V5.04492H509.911ZM510.911 34.3184H457.933V36.3184H510.911V34.3184ZM456.933 35.3184V184H458.933V35.3184H456.933ZM457.933 183H421.8V185H457.933V183ZM530.564 49.7227L529.651 49.315L529.649 49.3193L530.564 49.7227ZM547.166 25.1865L546.451 24.4875L546.447 24.4916L547.166 25.1865ZM570.359 9.07324L570.745 9.99607L570.749 9.99412L570.359 9.07324ZM672.166 26.5293L671.446 27.2238L671.448 27.2256L672.166 26.5293ZM672.41 162.638L673.13 163.332L673.131 163.33L672.41 162.638ZM545.945 162.76L545.226 163.454L545.227 163.456L545.945 162.76ZM573.655 140.543L572.909 141.208L572.911 141.211L573.655 140.543ZM644.7 140.665L643.953 140L643.953 140L644.7 140.665ZM645.066 48.0137L644.318 48.6773L644.321 48.6806L645.066 48.0137ZM573.289 48.2578L574.034 48.9251L574.036 48.9222L573.289 48.2578ZM523.386 95.6211C523.386 77.4851 526.099 62.3326 531.479 50.126L529.649 49.3193C524.125 61.8523 521.386 77.2988 521.386 95.6211H523.386ZM531.478 50.1303C535.499 41.123 540.967 33.0413 547.885 25.8814L546.447 24.4916C539.368 31.8174 533.768 40.0931 529.651 49.315L531.478 50.1303ZM547.881 25.8856C554.878 18.7276 562.5 13.4381 570.745 9.99606L569.974 8.15043C561.455 11.7071 553.614 17.1597 546.451 24.4875L547.881 25.8856ZM570.749 9.99412C581.753 5.33575 594.474 2.99316 608.934 2.99316V0.993164C594.259 0.993164 581.264 3.37063 569.97 8.15237L570.749 9.99412ZM608.934 2.99316C635.077 2.99316 655.878 11.0931 671.446 27.2238L672.886 25.8348C656.879 9.25063 635.525 0.993164 608.934 0.993164V2.99316ZM671.448 27.2256C687.09 43.3485 694.97 65.8169 694.97 94.7666H696.97C696.97 65.448 688.98 42.425 672.884 25.833L671.448 27.2256ZM694.97 94.7666C694.97 123.472 687.171 145.821 671.689 161.945L673.131 163.33C689.062 146.739 696.97 123.841 696.97 94.7666H694.97ZM671.691 161.943C656.203 177.992 635.484 186.052 609.422 186.052V188.052C635.931 188.052 657.204 179.835 673.13 163.332L671.691 161.943ZM609.422 186.052C583.029 186.052 562.148 178.029 546.663 162.064L545.227 163.456C561.156 179.88 582.593 188.052 609.422 188.052V186.052ZM546.665 162.065C531.182 146.021 523.386 123.915 523.386 95.6211H521.386C521.386 124.293 529.296 146.947 545.226 163.454L546.665 162.065ZM558.617 94.4004C558.617 114.803 563.328 130.461 572.909 141.208L574.402 139.878C565.266 129.629 560.617 114.525 560.617 94.4004H558.617ZM572.911 141.211C582.466 151.846 594.621 157.168 609.3 157.168V155.168C595.17 155.168 583.562 150.073 574.399 139.875L572.911 141.211ZM609.3 157.168C623.976 157.168 636.053 151.888 645.447 141.33L643.953 140C634.956 150.113 623.432 155.168 609.3 155.168V157.168ZM645.447 141.33C654.951 130.659 659.616 114.793 659.616 93.9121H657.616C657.616 114.535 653.004 129.838 643.953 140L645.447 141.33ZM659.616 93.9121C659.616 73.2808 655.075 57.6956 645.811 47.3467L644.321 48.6806C653.124 58.514 657.616 73.5278 657.616 93.9121H659.616ZM645.814 47.3501C636.652 37.0213 624.445 31.877 609.3 31.877V33.877C623.94 33.877 635.577 38.8238 644.318 48.6773L645.814 47.3501ZM609.3 31.877C594.149 31.877 581.864 37.1064 572.542 47.5935L574.036 48.9222C582.944 38.9015 594.665 33.877 609.3 33.877V31.877ZM572.544 47.5905C563.199 58.0202 558.617 73.6862 558.617 94.4004H560.617C560.617 73.9362 565.15 58.8405 574.034 48.9251L572.544 47.5905ZM724.656 184H723.656V185H724.656V184ZM724.656 5.04492V4.04492H723.656V5.04492H724.656ZM759.812 5.04492L760.665 4.52238L760.372 4.04492H759.812V5.04492ZM833.055 124.552L832.202 125.074L834.055 128.097V124.552H833.055ZM833.055 5.04492V4.04492H832.055V5.04492H833.055ZM866.624 5.04492H867.624V4.04492H866.624V5.04492ZM866.624 184V185H867.624V184H866.624ZM830.369 184L829.519 184.526L829.812 185H830.369V184ZM758.226 67.3008L759.076 66.7749L757.226 63.7814V67.3008H758.226ZM758.226 184V185H759.226V184H758.226ZM725.656 184V5.04492H723.656V184H725.656ZM724.656 6.04492H759.812V4.04492H724.656V6.04492ZM758.96 5.56746L832.202 125.074L833.907 124.029L760.665 4.52238L758.96 5.56746ZM834.055 124.552V5.04492H832.055V124.552H834.055ZM833.055 6.04492H866.624V4.04492H833.055V6.04492ZM865.624 5.04492V184H867.624V5.04492H865.624ZM866.624 183H830.369V185H866.624V183ZM831.22 183.474L759.076 66.7749L757.375 67.8266L829.519 184.526L831.22 183.474ZM757.226 67.3008V184H759.226V67.3008H757.226ZM758.226 183H724.656V185H758.226V183ZM905.809 49.7227L904.895 49.315L904.894 49.3193L905.809 49.7227ZM922.41 25.1865L921.695 24.4875L921.691 24.4916L922.41 25.1865ZM945.604 9.07324L945.989 9.99607L945.993 9.99412L945.604 9.07324ZM1047.41 26.5293L1046.69 27.2238L1046.69 27.2256L1047.41 26.5293ZM1047.65 162.638L1048.37 163.332L1048.38 163.33L1047.65 162.638ZM921.189 162.76L920.47 163.454L920.472 163.456L921.189 162.76ZM948.899 140.543L948.153 141.208L948.156 141.211L948.899 140.543ZM1019.94 140.665L1019.2 140L1019.2 140L1019.94 140.665ZM1020.31 48.0137L1019.56 48.6773L1019.57 48.6806L1020.31 48.0137ZM948.533 48.2578L949.278 48.9251L949.281 48.9222L948.533 48.2578ZM898.63 95.6211C898.63 77.4851 901.343 62.3326 906.724 50.126L904.894 49.3193C899.369 61.8523 896.63 77.2988 896.63 95.6211H898.63ZM906.722 50.1303C910.743 41.123 916.211 33.0413 923.129 25.8814L921.691 24.4916C914.612 31.8174 909.012 40.0931 904.895 49.315L906.722 50.1303ZM923.125 25.8856C930.122 18.7276 937.744 13.4381 945.989 9.99606L945.218 8.15043C936.699 11.7071 928.858 17.1597 921.695 24.4875L923.125 25.8856ZM945.993 9.99412C956.997 5.33575 969.718 2.99316 984.178 2.99316V0.993164C969.503 0.993164 956.508 3.37063 945.214 8.15237L945.993 9.99412ZM984.178 2.99316C1010.32 2.99316 1031.12 11.0931 1046.69 27.2238L1048.13 25.8348C1032.12 9.25063 1010.77 0.993164 984.178 0.993164V2.99316ZM1046.69 27.2256C1062.33 43.3485 1070.21 65.8169 1070.21 94.7666H1072.21C1072.21 65.448 1064.22 42.425 1048.13 25.833L1046.69 27.2256ZM1070.21 94.7666C1070.21 123.472 1062.42 145.821 1046.93 161.945L1048.38 163.33C1064.31 146.739 1072.21 123.841 1072.21 94.7666H1070.21ZM1046.93 161.943C1031.45 177.992 1010.73 186.052 984.666 186.052V188.052C1011.18 188.052 1032.45 179.835 1048.37 163.332L1046.93 161.943ZM984.666 186.052C958.273 186.052 937.392 178.029 921.907 162.064L920.472 163.456C936.4 179.88 957.837 188.052 984.666 188.052V186.052ZM921.909 162.065C906.426 146.021 898.63 123.915 898.63 95.6211H896.63C896.63 124.293 904.54 146.947 920.47 163.454L921.909 162.065ZM933.861 94.4004C933.861 114.803 938.572 130.461 948.153 141.208L949.646 139.878C940.51 129.629 935.861 114.525 935.861 94.4004H933.861ZM948.156 141.211C957.71 151.846 969.865 157.168 984.544 157.168V155.168C970.414 155.168 958.806 150.073 949.643 139.875L948.156 141.211ZM984.544 157.168C999.22 157.168 1011.3 151.888 1020.69 141.33L1019.2 140C1010.2 150.113 998.676 155.168 984.544 155.168V157.168ZM1020.69 141.33C1030.2 130.659 1034.86 114.793 1034.86 93.9121H1032.86C1032.86 114.535 1028.25 129.838 1019.2 140L1020.69 141.33ZM1034.86 93.9121C1034.86 73.2808 1030.32 57.6956 1021.06 47.3467L1019.57 48.6806C1028.37 58.514 1032.86 73.5278 1032.86 93.9121H1034.86ZM1021.06 47.3501C1011.9 37.0213 999.689 31.877 984.544 31.877V33.877C999.184 33.877 1010.82 38.8238 1019.56 48.6773L1021.06 47.3501ZM984.544 31.877C969.393 31.877 957.108 37.1064 947.786 47.5935L949.281 48.9222C958.188 38.9015 969.91 33.877 984.544 33.877V31.877ZM947.788 47.5905C938.443 58.0202 933.861 73.6862 933.861 94.4004H935.861C935.861 73.9362 940.394 58.8405 949.278 48.9251L947.788 47.5905ZM1145.19 184L1144.25 184.337L1144.48 185H1145.19V184ZM1081.22 5.04492V4.04492H1079.8L1080.28 5.3815L1081.22 5.04492ZM1120.41 5.04492L1121.35 4.72138L1121.12 4.04492H1120.41V5.04492ZM1165.7 137.491L1164.75 137.815L1165.71 140.628L1166.65 137.805L1165.7 137.491ZM1209.52 5.04492V4.04492H1208.8L1208.57 4.73079L1209.52 5.04492ZM1247.85 5.04492L1248.79 5.38207L1249.27 4.04492H1247.85V5.04492ZM1183.76 184V185H1184.47L1184.7 184.337L1183.76 184ZM1146.13 183.663L1082.17 4.70834L1080.28 5.3815L1144.25 184.337L1146.13 183.663ZM1081.22 6.04492H1120.41V4.04492H1081.22V6.04492ZM1119.46 5.36847L1164.75 137.815L1166.64 137.168L1121.35 4.72138L1119.46 5.36847ZM1166.65 137.805L1210.47 5.35905L1208.57 4.73079L1164.75 137.177L1166.65 137.805ZM1209.52 6.04492H1247.85V4.04492H1209.52V6.04492ZM1246.91 4.70777L1182.82 183.663L1184.7 184.337L1248.79 5.38207L1246.91 4.70777ZM1183.76 183H1145.19V185H1183.76V183Z" fill="white" fill-opacity="0.4"/>
</svg>
