<?xml version="1.0" encoding="UTF-8" standalone="no"?>
<!-- Created with Inkscape (http://www.inkscape.org/) -->
<svg
   xmlns:dc="http://purl.org/dc/elements/1.1/"
   xmlns:cc="http://web.resource.org/cc/"
   xmlns:rdf="http://www.w3.org/1999/02/22-rdf-syntax-ns#"
   xmlns:svg="http://www.w3.org/2000/svg"
   xmlns="http://www.w3.org/2000/svg"
   xmlns:sodipodi="http://sodipodi.sourceforge.net/DTD/sodipodi-0.dtd"
   xmlns:inkscape="http://www.inkscape.org/namespaces/inkscape"
   version="1.0"
   width="600"
   height="600"
   id="svg2"
   sodipodi:version="0.32"
   inkscape:version="0.45.1"
   sodipodi:docname="Antonov_logo.svg"
   inkscape:output_extension="org.inkscape.output.svg.inkscape"
   sodipodi:docbase="C:\Documents and Settings\Flanker\Desktop">
  <metadata
     id="metadata7">
    <rdf:RDF>
      <cc:Work
         rdf:about="">
        <dc:format>image/svg+xml</dc:format>
        <dc:type
           rdf:resource="http://purl.org/dc/dcmitype/StillImage" />
      </cc:Work>
    </rdf:RDF>
  </metadata>
  <sodipodi:namedview
     inkscape:window-height="1003"
     inkscape:window-width="1280"
     inkscape:pageshadow="2"
     inkscape:pageopacity="0.0"
     guidetolerance="10.0"
     gridtolerance="10.0"
     objecttolerance="10.0"
     borderopacity="1.0"
     bordercolor="#666666"
     pagecolor="#ffffff"
     id="base"
     height="600px"
     width="600px"
     inkscape:zoom="0.95105862"
     inkscape:cx="409.68901"
     inkscape:cy="419.29189"
     inkscape:window-x="0"
     inkscape:window-y="0"
     inkscape:current-layer="g1881" />
  <defs
     id="defs5" />
  <g
     id="g1881"
     transform="matrix(7.335461,0,0,7.335461,7.023864,36.56318)">
    <path
       id="path1887"
       style="fill:navy;fill-opacity:1;fill-rule:evenodd;stroke:none;stroke-width:1px;stroke-linecap:butt;stroke-linejoin:miter;stroke-opacity:1"
       d="M 25.668115,11.061502 C 17.573939,15.900412 8.0508077,24.171263 3.2331707,34.112308 C -1.6836403,44.257995 0.94439965,56.998943 7.8081397,62.793844 C 17.574323,71.039217 36.153663,69.187847 48.367,63.233745 C 60.476408,57.330306 69.800778,48.79458 75.024988,39.831019 C 79.063678,32.901555 83.135958,16.904419 71.769728,8.7740177 C 60.880428,0.9847697 41.477223,1.6104047 25.668115,11.061502 z M 23.02871,16.956174 C 10.938722,25.484865 6.5764177,35.492845 6.5764177,44.669929 C 6.5764177,56.47215 18.729677,64.641427 31.650767,63.585666 C 44.659836,62.529904 52.766008,57.603014 52.766008,57.603014 L 54.967973,59.374192 L 59.276538,56.547252 L 61.300088,51.092481 C 61.300088,51.092481 79.678668,34.942047 71.417808,19.683559 C 62.933288,4.0119657 38.026843,6.3759777 23.02871,16.956174 z " />
    <path
       id="path2793"
       style="fill:navy;fill-opacity:1;fill-rule:evenodd;stroke:none;stroke-width:1px;stroke-linecap:butt;stroke-linejoin:miter;stroke-opacity:1"
       d="M 37.805313,1.3034087 C 35.681411,2.2824897 33.783564,3.4147267 30.961563,3.9284087 C 30.961563,3.9284087 30.081589,20.700997 27.336563,33.084659 L 10.274063,33.147159 C 10.274063,44.150726 16.357674,51.803411 20.492813,51.803409 C 24.091189,51.803409 26.885243,46.223431 29.024063,39.303409 L 33.992813,39.303409 L 33.930313,46.084659 L 38.149063,46.084659 L 38.086563,39.303409 L 41.554113,39.303409 L 41.554113,46.070718 L 45.679113,46.070718 L 45.679113,39.303409 L 49.399063,39.303409 C 50.281487,56.120609 52.944141,65.614467 56.992818,70.522157 C 61.567778,64.539507 64.555318,50.768419 64.555318,32.959659 L 53.430313,32.990909 C 53.382817,30.378949 53.367813,27.894429 53.367813,25.834659 L 49.055313,25.834659 C 49.055313,28.362849 49.123906,30.731373 49.180313,33.022159 L 45.679113,33.022159 L 45.679113,25.837703 L 41.554113,25.837703 L 41.554113,33.053409 L 38.055313,33.053409 L 37.805313,1.3034087 z M 34.211563,12.834659 L 34.055313,33.053409 L 30.711563,33.084659 C 33.078208,23.0857 34.211564,12.834659 34.211563,12.834659 z M 14.305313,39.303409 L 25.649063,39.303409 C 24.254362,43.355563 22.531846,46.084659 20.399063,46.084659 C 15.885736,46.084659 14.305313,39.303409 14.305313,39.303409 z M 53.649063,39.303409 L 60.430318,39.303409 C 60.430318,44.583752 58.989738,53.825964 56.992818,57.678409 C 54.885441,54.83505 54.013961,47.073521 53.649063,39.303409 z " />
    <path
       style="font-size:12.79792786px;font-style:normal;font-weight:normal;fill:#000080;fill-opacity:1;stroke:none;stroke-width:1px;stroke-linecap:butt;stroke-linejoin:miter;stroke-opacity:1;font-family:Lello"
       d="M 78.993013,1.3741568 C 78.993003,2.5906296 78.55974,3.6352511 77.693223,4.5080244 C 76.826689,5.3808 75.787275,5.8171873 74.574978,5.8171874 C 73.354338,5.8171873 72.308675,5.3808 71.437986,4.5080244 C 70.567292,3.6352511 70.131947,2.5885466 70.131947,1.3679078 C 70.131947,0.14727762 70.566251,-0.89838536 71.434861,-1.7690843 C 72.303468,-2.6397683 73.354338,-3.0751141 74.587476,-3.0751228 C 75.799773,-3.0751141 76.837104,-2.6397683 77.699472,-1.7690843 C 78.561823,-0.89838536 78.993003,0.14936062 78.993013,1.3741568 L 78.993013,1.3741568 z M 78.199391,1.3679078 C 78.199382,0.34724504 77.844232,-0.52969542 77.133939,-1.2629162 C 76.42363,-1.9961232 75.572727,-2.3627301 74.581227,-2.3627381 C 73.568887,-2.3627301 72.706527,-1.9971647 71.994146,-1.2660407 C 71.281759,-0.53490291 70.925567,0.34307906 70.925569,1.3679078 C 70.925567,2.4010771 71.282801,3.2821836 71.99727,4.0112298 C 72.711735,4.7402794 73.568887,5.1048033 74.568729,5.1048028 C 75.560229,5.1048033 76.413215,4.7402794 77.12769,4.0112298 C 77.842149,3.2821836 78.199382,2.4010771 78.199391,1.3679078 L 78.199391,1.3679078 z M 76.793369,3.929993 L 75.643555,3.929993 L 74.812439,1.8615779 L 73.587638,1.8615779 L 73.587638,3.929993 L 72.494065,3.929993 L 72.494065,-1.1879283 L 74.86868,-1.1879283 C 75.518569,-1.1879215 76.002865,-1.0462779 76.32157,-0.76299715 C 76.640261,-0.47970357 76.799611,-0.11517962 76.799618,0.33057579 C 76.799611,0.96797725 76.482995,1.417904 75.849771,1.6803572 L 76.793369,3.929993 z M 73.587638,1.0492094 L 74.712456,1.0492094 C 75.349847,1.049214 75.668545,0.80550372 75.668551,0.31807781 C 75.668545,-0.14850753 75.376926,-0.38180285 74.793692,-0.38180887 L 73.587638,-0.38180887 L 73.587638,1.0492094 z "
       id="text2159" />
  </g>
</svg>
